<?xml version="1.0" encoding="UTF-8"?>
<svg width="512px" height="512px" viewBox="0 0 512 512" version="1.1" xmlns="http://www.w3.org/2000/svg" xmlns:xlink="http://www.w3.org/1999/xlink">
    <title>cui2022</title>
    <defs>
        <linearGradient x1="46.8562576%" y1="11.7259814%" x2="63.9276152%" y2="84.8556917%" id="linearGradient-1">
            <stop stop-color="#000000" stop-opacity="0" offset="0%"></stop>
            <stop stop-color="#FFFFFF" stop-opacity="0.2" offset="100%"></stop>
        </linearGradient>
        <linearGradient x1="68.0572347%" y1="3.47056628%" x2="77.4731271%" y2="91.6816095%" id="linearGradient-2">
            <stop stop-color="#000000" stop-opacity="0" offset="0%"></stop>
            <stop stop-color="#FFFFFF" stop-opacity="0.2" offset="100%"></stop>
        </linearGradient>
        <linearGradient x1="97.2505058%" y1="0%" x2="69.8007426%" y2="83.7050012%" id="linearGradient-3">
            <stop stop-color="#000000" stop-opacity="0" offset="0%"></stop>
            <stop stop-color="#FFFFFF" stop-opacity="0.2" offset="100%"></stop>
        </linearGradient>
        <linearGradient x1="97.2505058%" y1="35.2592468%" x2="69.8007426%" y2="59.9367421%" id="linearGradient-4">
            <stop stop-color="#000000" stop-opacity="0" offset="0%"></stop>
            <stop stop-color="#FFFFFF" stop-opacity="0.2" offset="100%"></stop>
        </linearGradient>
        <linearGradient x1="97.2505058%" y1="48.4205246%" x2="69.8007426%" y2="51.0647244%" id="linearGradient-5">
            <stop stop-color="#000000" stop-opacity="0" offset="0%"></stop>
            <stop stop-color="#FFFFFF" stop-opacity="0.2" offset="100%"></stop>
        </linearGradient>
    </defs>
    <g id="cui2022" stroke="none" stroke-width="1" fill="none" fill-rule="evenodd">
        <rect fill="#2B48A9" x="0" y="0" width="512" height="512"></rect>
        <g id="Group">
            <polygon id="Rectangle" fill="url(#linearGradient-1)" points="512 2.84217094e-14 313.855469 512 512 512"></polygon>
            <polygon id="Rectangle" fill="url(#linearGradient-2)" points="512 2.84217094e-14 313.855469 512 60 512"></polygon>
            <polygon id="Rectangle" fill="url(#linearGradient-3)" points="0 278 512 2.84217094e-14 60 512 0 512"></polygon>
            <polygon id="Rectangle" fill="url(#linearGradient-4)" points="0 91 512 -2.44249065e-15 0 278"></polygon>
            <polygon id="Rectangle" fill="url(#linearGradient-5)" points="7.10542736e-15 91 512 -2.44249065e-15 0 -3.21964677e-14"></polygon>
        </g>
        <path d="M164,382 L164,364.297762 L119.072614,364.297762 C120.152835,362.542169 121.40491,360.981641 122.828838,359.616179 C124.252766,358.250717 125.897649,356.909639 127.763485,355.592943 C129.629322,354.276248 131.789765,352.959552 134.244813,351.642857 C136.699862,350.326162 139.449516,348.88755 142.493776,347.327022 C144.654219,346.156627 146.888313,344.791165 149.196058,343.230637 C151.503804,341.670109 153.639696,339.890132 155.603734,337.890706 C157.567773,335.891279 159.188105,333.574871 160.46473,330.94148 C161.741355,328.30809 162.379668,325.284567 162.379668,321.870912 C162.379668,316.89673 161.127593,312.556512 158.623444,308.850258 C156.119295,305.144005 152.510373,302.242398 147.79668,300.145439 C143.082988,298.04848 137.387275,297 130.709544,297 C126.290456,297 122.141425,297.463282 118.262448,298.389845 C114.383472,299.316408 110.848202,300.486804 107.656639,301.901033 C104.465076,303.315261 101.715422,304.827022 99.4076763,306.436317 C97.0999308,308.045611 95.2586445,309.532989 93.8838174,310.898451 L93.8838174,310.898451 L106.404564,325.2358 C107.582988,323.772806 108.908714,322.38296 110.381743,321.066265 C111.854772,319.74957 113.450553,318.554791 115.169087,317.481928 C116.887621,316.409065 118.753458,315.580034 120.766598,314.994836 C122.779737,314.409639 124.96473,314.11704 127.321577,314.11704 C130.267635,314.11704 132.722683,314.604705 134.686722,315.580034 C136.650761,316.555364 138.172891,317.847676 139.253112,319.456971 C140.333333,321.066265 140.873444,322.846242 140.873444,324.796902 C140.873444,326.650029 140.333333,328.283706 139.253112,329.697935 C138.172891,331.112163 136.577109,332.502008 134.465768,333.86747 C132.354426,335.232932 129.776625,336.72031 126.732365,338.329604 C123.688105,339.938898 120.152835,341.816408 116.126556,343.962134 C111.511065,346.497992 107.70574,349.106999 104.710581,351.789157 C101.715422,354.471314 99.3585754,357.324154 97.6400415,360.347676 C95.9215076,363.371199 94.7185339,366.638554 94.0311203,370.149742 C93.3437068,373.660929 93,377.611015 93,382 L93,382 L164,382 Z M215,383 C222.26615,383 228.771318,381.093904 234.515504,377.281713 C240.25969,373.469522 244.776486,368.215541 248.065891,361.519769 C251.355297,354.823998 253,347.175178 253,338.573311 C253,329.971444 251.355297,322.322625 248.065891,315.626853 C244.776486,308.931082 240.25969,303.652663 234.515504,299.791598 C228.771318,295.930533 222.26615,294 215,294 C207.73385,294 201.228682,295.930533 195.484496,299.791598 C189.74031,303.652663 185.223514,308.931082 181.934109,315.626853 C178.644703,322.322625 177,329.971444 177,338.573311 C177,347.175178 178.644703,354.823998 181.934109,361.519769 C185.223514,368.215541 189.74031,373.469522 195.484496,377.281713 C201.228682,381.093904 207.73385,383 215,383 Z M215.072874,365 C211.477733,365 208.319838,363.874423 205.59919,361.623269 C202.878543,359.372114 200.765182,356.289012 199.259109,352.373961 C197.753036,348.45891 197,343.858726 197,338.573407 C197,333.288089 197.753036,328.663435 199.259109,324.699446 C200.765182,320.735457 202.878543,317.627886 205.59919,315.376731 C208.319838,313.125577 211.477733,312 215.072874,312 C218.57085,312 221.680162,313.125577 224.40081,315.376731 C227.121457,317.627886 229.234818,320.735457 230.740891,324.699446 C232.246964,328.663435 233,333.288089 233,338.573407 C233,343.760849 232.222672,348.336565 230.668016,352.300554 C229.11336,356.264543 227,359.372114 224.327935,361.623269 C221.65587,363.874423 218.57085,365 215.072874,365 Z M336,382 L336,364.297762 L291.072614,364.297762 C292.152835,362.542169 293.40491,360.981641 294.828838,359.616179 C296.252766,358.250717 297.897649,356.909639 299.763485,355.592943 C301.629322,354.276248 303.789765,352.959552 306.244813,351.642857 C308.699862,350.326162 311.449516,348.88755 314.493776,347.327022 C316.654219,346.156627 318.888313,344.791165 321.196058,343.230637 C323.503804,341.670109 325.639696,339.890132 327.603734,337.890706 C329.567773,335.891279 331.188105,333.574871 332.46473,330.94148 C333.741355,328.30809 334.379668,325.284567 334.379668,321.870912 C334.379668,316.89673 333.127593,312.556512 330.623444,308.850258 C328.119295,305.144005 324.510373,302.242398 319.79668,300.145439 C315.082988,298.04848 309.387275,297 302.709544,297 C298.290456,297 294.141425,297.463282 290.262448,298.389845 C286.383472,299.316408 282.848202,300.486804 279.656639,301.901033 C276.465076,303.315261 273.715422,304.827022 271.407676,306.436317 C269.099931,308.045611 267.258645,309.532989 265.883817,310.898451 L265.883817,310.898451 L278.404564,325.2358 C279.582988,323.772806 280.908714,322.38296 282.381743,321.066265 C283.854772,319.74957 285.450553,318.554791 287.169087,317.481928 C288.887621,316.409065 290.753458,315.580034 292.766598,314.994836 C294.779737,314.409639 296.96473,314.11704 299.321577,314.11704 C302.267635,314.11704 304.722683,314.604705 306.686722,315.580034 C308.650761,316.555364 310.172891,317.847676 311.253112,319.456971 C312.333333,321.066265 312.873444,322.846242 312.873444,324.796902 C312.873444,326.650029 312.333333,328.283706 311.253112,329.697935 C310.172891,331.112163 308.577109,332.502008 306.465768,333.86747 C304.354426,335.232932 301.776625,336.72031 298.732365,338.329604 C295.688105,339.938898 292.152835,341.816408 288.126556,343.962134 C283.511065,346.497992 279.70574,349.106999 276.710581,351.789157 C273.715422,354.471314 271.358575,357.324154 269.640041,360.347676 C267.921508,363.371199 266.718534,366.638554 266.03112,370.149742 C265.343707,373.660929 265,377.611015 265,382 L265,382 L336,382 Z M419,382 L419,364.297762 L374.072614,364.297762 C375.152835,362.542169 376.40491,360.981641 377.828838,359.616179 C379.252766,358.250717 380.897649,356.909639 382.763485,355.592943 C384.629322,354.276248 386.789765,352.959552 389.244813,351.642857 C391.699862,350.326162 394.449516,348.88755 397.493776,347.327022 C399.654219,346.156627 401.888313,344.791165 404.196058,343.230637 C406.503804,341.670109 408.639696,339.890132 410.603734,337.890706 C412.567773,335.891279 414.188105,333.574871 415.46473,330.94148 C416.741355,328.30809 417.379668,325.284567 417.379668,321.870912 C417.379668,316.89673 416.127593,312.556512 413.623444,308.850258 C411.119295,305.144005 407.510373,302.242398 402.79668,300.145439 C398.082988,298.04848 392.387275,297 385.709544,297 C381.290456,297 377.141425,297.463282 373.262448,298.389845 C369.383472,299.316408 365.848202,300.486804 362.656639,301.901033 C359.465076,303.315261 356.715422,304.827022 354.407676,306.436317 C352.099931,308.045611 350.258645,309.532989 348.883817,310.898451 L348.883817,310.898451 L361.404564,325.2358 C362.582988,323.772806 363.908714,322.38296 365.381743,321.066265 C366.854772,319.74957 368.450553,318.554791 370.169087,317.481928 C371.887621,316.409065 373.753458,315.580034 375.766598,314.994836 C377.779737,314.409639 379.96473,314.11704 382.321577,314.11704 C385.267635,314.11704 387.722683,314.604705 389.686722,315.580034 C391.650761,316.555364 393.172891,317.847676 394.253112,319.456971 C395.333333,321.066265 395.873444,322.846242 395.873444,324.796902 C395.873444,326.650029 395.333333,328.283706 394.253112,329.697935 C393.172891,331.112163 391.577109,332.502008 389.465768,333.86747 C387.354426,335.232932 384.776625,336.72031 381.732365,338.329604 C378.688105,339.938898 375.152835,341.816408 371.126556,343.962134 C366.511065,346.497992 362.70574,349.106999 359.710581,351.789157 C356.715422,354.471314 354.358575,357.324154 352.640041,360.347676 C350.921508,363.371199 349.718534,366.638554 349.03112,370.149742 C348.343707,373.660929 348,377.611015 348,382 L348,382 L419,382 Z" id="2022" fill="#FFFFFF" fill-rule="nonzero"></path>
        <g id="CUI" transform="translate(93.000000, 128.000000)" fill="#FFFFFF" fill-rule="nonzero">
            <path d="M0,71.2916667 C0,62.5647712 1.58882059,54.005829 4.76650943,45.6145833 C7.94419828,37.2233377 12.5754413,29.5706364 18.6603774,22.65625 C24.7453134,15.7418636 32.182346,10.237289 40.9716981,6.14236111 C49.7610502,2.04743323 59.7672395,0 70.990566,0 C84.2422046,0 95.7019957,2.88654521 105.370283,8.65972222 C115.03857,14.4328992 122.23897,21.9513426 126.971698,31.2152778 L105.471698,45.9166667 C103.037724,40.5462694 99.8600825,36.2835806 95.9386792,33.1284722 C92.017276,29.9733639 87.825494,27.7581082 83.3632075,26.4826389 C78.9009211,25.2071695 74.5063109,24.5694444 70.1792453,24.5694444 C63.1477636,24.5694444 57.0291141,25.9791526 51.8231132,28.7986111 C46.6171123,31.6180697 42.2563069,35.3101624 38.740566,39.875 C35.2248252,44.4398376 32.6218638,49.5416385 30.9316038,55.1805556 C29.2413438,60.8194726 28.3962264,66.4583051 28.3962264,72.0972222 C28.3962264,78.407439 29.4103672,84.4826097 31.4386792,90.3229167 C33.4669913,96.1632236 36.3403902,101.332153 40.0589623,105.829861 C43.7775343,110.327569 48.2397538,113.885404 53.4457547,116.503472 C58.6517556,119.121541 64.3647488,120.430556 70.5849057,120.430556 C75.0471921,120.430556 79.577021,119.692137 84.1745283,118.215278 C88.7720356,116.738419 93.0314269,114.388905 96.9528302,111.166667 C100.874233,107.944428 103.916656,103.782433 106.080189,98.6805556 L129,111.770833 C126.160363,118.88661 121.52912,124.928216 115.106132,129.895833 C108.683144,134.863451 101.482744,138.622672 93.504717,141.173611 C85.5266897,143.72455 77.6163914,145 69.7735849,145 C59.496804,145 50.0990992,142.885438 41.5801887,138.65625 C33.0612782,134.427062 25.7256597,128.78823 19.5731132,121.739583 C13.4205667,114.690937 8.62030026,106.76972 5.17216981,97.9756944 C1.72403936,89.181669 0,80.287082 0,71.2916667 Z" id="Path"></path>
            <path d="M208.600644,145 C197.194253,145 187.498966,143.086732 179.514493,139.26014 C171.530019,135.433547 165.08886,130.16367 160.190821,123.45035 C155.292783,116.737029 151.703178,109.117525 149.4219,100.591608 C147.140622,92.0656916 146,83.1706757 146,73.9062937 L146,1 L173.777778,1 L173.777778,73.9062937 C173.777778,79.8140156 174.348089,85.5538183 175.488728,91.1258741 C176.629367,96.69793 178.541586,101.699279 181.225443,106.13007 C183.9093,110.560861 187.465356,114.051735 191.89372,116.602797 C196.322083,119.153846 201.823907,120.429371 208.399356,120.429371 C215.108998,120.429371 220.711464,119.120293 225.206924,116.502098 C229.702384,113.883903 233.258441,110.359463 235.875201,105.928671 C238.491962,101.49788 240.404181,96.4965314 241.611916,90.9244755 C242.819652,85.3524197 243.42351,79.6797491 243.42351,73.9062937 L243.42351,1 L271,1 L271,73.9062937 C271,83.7077413 269.82583,92.9048521 267.477456,101.497902 C265.129081,110.090952 261.438834,117.643324 256.406602,124.155245 C251.374371,130.667165 244.899664,135.769212 236.982287,139.461538 C229.064909,143.153865 219.604457,145 208.600644,145 Z" id="Path"></path>
            <polygon id="Path" points="299 144 299 1 326 1 326 144"></polygon>
        </g>
    </g>
</svg>