<?xml version="1.0" encoding="UTF-8"?>
<svg width="16px" height="16px" viewBox="0 0 16 16" version="1.1" xmlns="http://www.w3.org/2000/svg" xmlns:xlink="http://www.w3.org/1999/xlink">
            <path d="M16,13.5253487 L16,14.4062462 L13.0115797,14.4062462 L13.0115797,13.5253487 L14.0567908,13.5253487 L14.0567908,11.319465 C14.0126267,11.3777064 13.9439276,11.4371603 13.8506928,11.4978285 C13.7574575,11.5584967 13.6519561,11.6155239 13.5341852,11.6689119 C13.4164144,11.7222999 13.2986453,11.7659803 13.1808745,11.7999545 C13.0631036,11.8339287 12.9576021,11.8509155 12.8643669,11.8509155 L12.8643669,10.9408975 C12.952695,10.9408975 13.0594233,10.9129905 13.1845548,10.8571758 C13.3096863,10.8013611 13.434816,10.7346267 13.5599475,10.6569718 C13.685079,10.5793166 13.793034,10.5028758 13.8838157,10.4276473 C13.9745974,10.3524188 14.0322552,10.2929648 14.0567908,10.2492838 L15.0651986,10.2492838 L15.0651986,13.5253487 L16,13.5253487 Z"></path>
            <path d="M8.66981834,14.4062462 C8.66981834,14.1878408 8.686993,13.9912788 8.72134283,13.8165545 C8.75569266,13.6418301 8.81580396,13.4792419 8.90167853,13.3287848 C8.98755311,13.1783277 9.10532219,13.0363663 9.25498931,12.9028964 C9.40465642,12.7694264 9.59480442,12.6395984 9.82543899,12.5134086 C10.0266309,12.4066327 10.2032845,12.3132051 10.3554051,12.2331231 C10.5075258,12.1530411 10.6363358,12.079027 10.7418388,12.0110787 C10.8473419,11.9431303 10.9270816,11.8739697 10.9810596,11.8035946 C11.0350379,11.7332195 11.0620267,11.6519254 11.0620267,11.5597097 C11.0620267,11.4626407 11.0350379,11.3740665 10.9810596,11.2939845 C10.9270816,11.2139025 10.8510221,11.1495952 10.7528798,11.1010606 C10.6547374,11.0525261 10.5320613,11.0282592 10.3848477,11.0282592 C10.2670769,11.0282592 10.1578951,11.0428193 10.0572992,11.0719401 C9.95670325,11.1010608 9.8634694,11.1423145 9.77759482,11.1957025 C9.69172025,11.2490905 9.61198077,11.3085444 9.53837399,11.3740661 C9.46476721,11.4395877 9.3985221,11.5087484 9.33963668,11.5815502 L8.71398219,10.868096 C8.78268185,10.8001477 8.87468894,10.7261336 8.99000623,10.6460516 C9.10532351,10.5659696 9.24272077,10.4907422 9.40220213,10.4203671 C9.56168348,10.3499921 9.7383371,10.2917515 9.93216829,10.2456437 C10.1259995,10.1995359 10.3333221,10.1764823 10.5541425,10.1764823 C10.8878265,10.1764823 11.1724351,10.2286562 11.4079768,10.3330054 C11.6435185,10.4373547 11.8238524,10.5817428 11.9489839,10.766174 C12.0741155,10.9506052 12.1366803,11.1665807 12.1366803,11.4141068 C12.1366803,11.5839777 12.1047842,11.7344325 12.040992,11.8654758 C11.9771994,11.9965191 11.8962332,12.1117869 11.7980908,12.2112827 C11.6999484,12.3107785 11.5932202,12.3993527 11.4779029,12.4770079 C11.3625856,12.5546628 11.2509504,12.6226105 11.1429937,12.680852 C10.9908731,12.7585072 10.8534758,12.8300946 10.7307978,12.8956162 C10.6081199,12.9611379 10.5001649,13.0266585 10.4069296,13.0921801 C10.3136948,13.1577017 10.2315014,13.2244357 10.1603482,13.2923841 C10.0891949,13.3603324 10.0266301,13.4379865 9.97265181,13.5253487 L12.2176473,13.5253487 L12.2176473,14.4062462 L8.66981834,14.4062462 Z"></path>
            <path d="M6.13039716,10.06 C6.49352394,10.06 6.81861567,10.1558543 7.10568211,10.3475657 C7.39274855,10.5392771 7.61847261,10.8013597 7.78286109,11.1338213 C7.94724956,11.4662829 8.02944256,11.8460599 8.02944256,12.2731639 C8.02944256,12.7002678 7.94724956,13.0800449 7.78286109,13.4125065 C7.61847261,13.7449681 7.39274855,14.0058373 7.10568211,14.195122 C6.81861567,14.3844067 6.49352394,14.4790476 6.13039716,14.4790476 C5.76727039,14.4790476 5.44217866,14.3844067 5.15511222,14.195122 C4.86804578,14.0058373 4.64232171,13.7449681 4.47793324,13.4125065 C4.31354476,13.0800449 4.23135176,12.7002678 4.23135176,12.2731639 C4.23135176,11.8460599 4.31354476,11.4662829 4.47793324,11.1338213 C4.64232171,10.8013597 4.86804578,10.5392771 5.15511222,10.3475657 C5.44217866,10.1558543 5.76727039,10.06 6.13039716,10.06 Z M6.13039716,10.9554578 C5.94883377,10.9554578 5.78935481,11.0112716 5.65195549,11.1229011 C5.51455617,11.2345305 5.40782794,11.3886254 5.3317676,11.5851902 C5.25570727,11.7817551 5.21767767,12.0110774 5.21767767,12.2731639 C5.21767767,12.5352504 5.25570727,12.7633593 5.3317676,12.9574975 C5.40782794,13.1516356 5.51455617,13.3045171 5.65195549,13.4161465 C5.78935481,13.527776 5.94883377,13.5835899 6.13039716,13.5835899 C6.30705343,13.5835899 6.46285211,13.527776 6.59779787,13.4161465 C6.73274363,13.3045171 6.83947186,13.1504223 6.91798576,12.9538574 C6.99649966,12.7572925 7.03575602,12.5303969 7.03575602,12.2731639 C7.03575602,12.0110774 6.99772642,11.7817551 6.92166608,11.5851902 C6.84560574,11.3886254 6.73887751,11.2345305 6.60147819,11.1229011 C6.46407887,11.0112716 6.30705343,10.9554578 6.13039716,10.9554578 Z"></path>
            <path d="M0,14.4062462 C0,14.1878408 0.0171746575,13.9912788 0.0515244876,13.8165545 C0.0858743178,13.6418301 0.145985619,13.4792419 0.231860194,13.3287848 C0.31773477,13.1783277 0.43550385,13.0363663 0.585170967,12.9028964 C0.734838084,12.7694264 0.924986077,12.6395984 1.15562065,12.5134086 C1.35681251,12.4066327 1.53346613,12.3132051 1.68558681,12.2331231 C1.83770749,12.1530411 1.96651742,12.079027 2.07202047,12.0110787 C2.17752352,11.9431303 2.25726327,11.8739697 2.3112413,11.8035946 C2.36521961,11.7332195 2.39220835,11.6519254 2.39220835,11.5597097 C2.39220835,11.4626407 2.36521961,11.3740665 2.3112413,11.2939845 C2.25726327,11.2139025 2.1812038,11.1495952 2.08306143,11.1010606 C1.98491906,11.0525261 1.86224293,11.0282592 1.71502937,11.0282592 C1.59725853,11.0282592 1.48807678,11.0428193 1.38748085,11.0719401 C1.28688491,11.1010608 1.19365106,11.1423145 1.10777648,11.1957025 C1.02190191,11.2490905 0.942162428,11.3085444 0.868555649,11.3740661 C0.79494887,11.4395877 0.728703763,11.5087484 0.669818339,11.5815502 L0.0441638466,10.868096 C0.112863507,10.8001477 0.2048706,10.7261336 0.320187888,10.6460516 C0.435505175,10.5659696 0.572902434,10.4907422 0.732383789,10.4203671 C0.891865143,10.3499921 1.06851876,10.2917515 1.26234995,10.2456437 C1.45618113,10.1995359 1.66350378,10.1764823 1.88432412,10.1764823 C2.21800818,10.1764823 2.50261679,10.2286562 2.73815849,10.3330054 C2.97370018,10.4373547 3.15403408,10.5817428 3.27916561,10.766174 C3.40429713,10.9506052 3.46686195,11.1665807 3.46686195,11.4141068 C3.46686195,11.5839777 3.43496584,11.7344325 3.37117362,11.8654758 C3.30738108,11.9965191 3.22641484,12.1117869 3.12827246,12.2112827 C3.03013009,12.3107785 2.92340186,12.3993527 2.80808458,12.4770079 C2.69276729,12.5546628 2.58113202,12.6226105 2.47317541,12.680852 C2.32105473,12.7585072 2.18365747,12.8300946 2.06097951,12.8956162 C1.93830154,12.9611379 1.83034655,13.0266585 1.7371113,13.0921801 C1.64387651,13.1577017 1.56168304,13.2244357 1.49052982,13.2923841 C1.4193766,13.3603324 1.35681178,13.4379865 1.30283347,13.5253487 L3.54782901,13.5253487 L3.54782901,14.4062462 L0,14.4062462 Z"></path>
            <polygon points="14.6748466 8.56984657 14.6748466 1.54909616 16 1.54909616 16 8.56984657"></polygon>
            <path d="M10.2380684,8.61894273 C9.67824556,8.61894273 9.20240326,8.52500865 8.81052725,8.33713766 C8.41865125,8.14926667 8.10252072,7.89053594 7.8621262,7.56093772 C7.62173167,7.23133949 7.44555477,6.85725112 7.33359019,6.43866138 C7.22162562,6.02007163 7.16564417,5.58336053 7.16564417,5.12851498 L7.16564417,1.54909616 L8.52897069,1.54909616 L8.52897069,5.12851498 C8.52897069,5.41856142 8.55696141,5.70036368 8.6129437,5.9739302 C8.66892599,6.24749673 8.76277723,6.49304372 8.89450026,6.71057855 C9.02622329,6.92811338 9.20075368,7.09950189 9.41809668,7.22474921 C9.63543967,7.34999591 9.90546783,7.41261926 10.2281892,7.41261926 C10.5574968,7.41261926 10.8324645,7.34834857 11.0531006,7.21980526 C11.2737367,7.09126195 11.448267,6.91822548 11.576697,6.70069065 C11.7051269,6.48315583 11.7989782,6.23760883 11.8582536,5.9640423 C11.9175289,5.69047578 11.9471662,5.41196946 11.9471662,5.12851498 L11.9471662,1.54909616 L13.3006135,1.54909616 L13.3006135,5.12851498 C13.3006135,5.60972839 13.2429855,6.06127119 13.1277279,6.48315691 C13.0124702,6.90504264 12.8313538,7.27583508 12.5843731,7.59554536 C12.3373924,7.91525564 12.0196154,8.16574653 11.6310325,8.34702556 C11.2424495,8.52830458 10.7781328,8.61894273 10.2380684,8.61894273 Z"></path>
            <path d="M0,5.00014684 C0,4.57168981 0.0779789246,4.15147865 0.233939113,3.73950073 C0.389899302,3.32752282 0.617199572,2.9518046 0.915846742,2.6123348 C1.21449391,2.272865 1.57950164,2.00261155 2.01088089,1.80156632 C2.44226013,1.6005211 2.93336145,1.5 3.48419956,1.5 C4.13458673,1.5 4.69703046,1.64171828 5.17154763,1.92515908 C5.6460648,2.20859988 5.99945865,2.57772656 6.23173978,3.03255017 L5.17652506,3.75433186 C5.05706619,3.490666 4.90110834,3.28138436 4.70864683,3.12648067 C4.51618532,2.97157697 4.31045369,2.86281643 4.09144577,2.80019579 C3.87243784,2.73757515 3.65675146,2.7062653 3.44438014,2.7062653 C3.09927674,2.7062653 2.79897492,2.77547655 2.54346568,2.91390113 C2.28795643,3.0523257 2.07392917,3.23359327 1.90137747,3.45770925 C1.72882578,3.68182524 1.60107307,3.93230405 1.51811552,4.20915321 C1.43515798,4.48600236 1.39367982,4.76284737 1.39367982,5.03969652 C1.39367982,5.34950391 1.44345361,5.64777145 1.54300266,5.93450808 C1.64255172,6.2212447 1.78357743,6.47501929 1.96608404,6.69583945 C2.14859064,6.91665961 2.36759528,7.09133563 2.62310453,7.21987274 C2.87861377,7.34840984 3.15900607,7.41267744 3.46428985,7.41267744 C3.68329777,7.41267744 3.90562066,7.37642392 4.13126519,7.30391581 C4.35690972,7.2314077 4.5659596,7.11605561 4.75842111,6.95785609 C4.95088262,6.79965658 5.10020397,6.5953186 5.20638963,6.34483603 L6.33128834,6.98751836 C6.19191966,7.33687563 5.96461939,7.63349527 5.64938072,7.8773862 C5.33414204,8.12127712 4.98074819,8.30584046 4.58918856,8.43108174 C4.19762894,8.55632303 3.80939344,8.61894273 3.42447042,8.61894273 C2.92008854,8.61894273 2.45885149,8.51512585 2.04074546,8.30748899 C1.62263942,8.09985212 1.26260906,7.82300711 0.960643593,7.47694567 C0.658678121,7.13088422 0.423082221,6.74198291 0.253848825,6.31023005 C0.0846154289,5.8784772 0,5.44178716 0,5.00014684 Z"></path>
</svg>