<?xml version="1.0" encoding="UTF-8"?>
<svg width="16px" height="16px" viewBox="0 0 16 16" version="1.1" xmlns="http://www.w3.org/2000/svg" xmlns:xlink="http://www.w3.org/1999/xlink">
    <title>safari-pinned-tab</title>
    <g id="Page-1" stroke="none" stroke-width="1" fill="none" fill-rule="evenodd">
        <g id="apple-16x16" fill="#CCCCCC" fill-rule="nonzero">
            <g id="Text-(Square)" transform="translate(0.000000, 1.500000)">
                <g id="CUI">
                    <path d="M0,3.49897751 C0,3.07066362 0.0779789246,2.65059283 0.233939113,2.23875256 C0.389899302,1.82691228 0.617199572,1.45131958 0.915846742,1.11196319 C1.21449391,0.772606801 1.57950164,0.502443632 2.01088089,0.301465576 C2.44226013,0.10048752 2.93336145,0 3.48419956,0 C4.13458673,0 4.69703046,0.14167093 5.17154763,0.425017042 C5.6460648,0.708363153 5.99945865,1.07736651 6.23173978,1.53203817 L5.17652506,2.25357873 C5.05706619,1.99000095 4.90110834,1.78078923 4.70864683,1.62593729 C4.51618532,1.47108534 4.31045369,1.36236114 4.09144577,1.29976142 C3.87243784,1.2371617 3.65675146,1.2058623 3.44438014,1.2058623 C3.09927674,1.2058623 2.79897492,1.27505043 2.54346568,1.41342877 C2.28795643,1.5518071 2.07392917,1.7330141 1.90137747,1.95705521 C1.72882578,2.18109633 1.60107307,2.43149146 1.51811552,2.70824813 C1.43515798,2.98500479 1.39367982,3.26175731 1.39367982,3.53851397 C1.39367982,3.84821786 1.44345361,4.14638575 1.54300266,4.43302658 C1.64255172,4.71966742 1.78357743,4.97335722 1.96608404,5.19410361 C2.14859064,5.41485 2.36759528,5.58946766 2.62310453,5.71796183 C2.87861377,5.84645599 3.15900607,5.91070211 3.46428985,5.91070211 C3.68329777,5.91070211 3.90562066,5.87446071 4.13126519,5.80197682 C4.35690972,5.72949293 4.5659596,5.61417939 4.75842111,5.45603272 C4.95088262,5.29788605 5.10020397,5.09361634 5.20638963,4.84321745 L6.33128834,5.48568507 C6.19191966,5.83492563 5.96461939,6.13144618 5.64938072,6.37525562 C5.33414204,6.61906507 4.98074819,6.80356675 4.58918856,6.92876619 C4.19762894,7.05396563 3.80939344,7.11656442 3.42447042,7.11656442 C2.92008854,7.11656442 2.45885149,7.01278222 2.04074546,6.80521472 C1.62263942,6.59764722 1.26260906,6.32089471 0.960643593,5.97494888 C0.658678121,5.62900304 0.423082221,5.24023165 0.253848825,4.80862304 C0.0846154289,4.37701443 0,3.94047028 0,3.49897751 Z" id="Path"></path>
                    <path d="M10.2380684,7.11656442 C9.67824556,7.11656442 9.20240326,7.02266171 8.81052725,6.83485349 C8.41865125,6.64704527 8.10252072,6.38840098 7.8621262,6.05891287 C7.62173167,5.72942475 7.44555477,5.35546136 7.33359019,4.93701145 C7.22162562,4.51856155 7.16564417,4.08199635 7.16564417,3.62730276 L7.16564417,0.0490797546 L8.52897069,0.0490797546 L8.52897069,3.62730276 C8.52897069,3.9172523 8.55696141,4.19896041 8.6129437,4.47243554 C8.66892599,4.74591067 8.76277723,4.99137563 8.89450026,5.20883779 C9.02622329,5.42629994 9.20075368,5.59763119 9.41809668,5.72283667 C9.63543967,5.84804153 9.90546783,5.91064396 10.2281892,5.91064396 C10.5574968,5.91064396 10.8324645,5.84639474 11.0531006,5.71789438 C11.2737367,5.58939401 11.448267,5.41641535 11.576697,5.19895319 C11.7051269,4.98149104 11.7989782,4.73602608 11.8582536,4.46255095 C11.9175289,4.18907581 11.9471662,3.91066253 11.9471662,3.62730276 L11.9471662,0.0490797546 L13.3006135,0.0490797546 L13.3006135,3.62730276 C13.3006135,4.1083554 13.2429855,4.55974734 13.1277279,4.98149213 C13.0124702,5.40323691 12.8313538,5.77390548 12.5843731,6.09350895 C12.3373924,6.41311241 12.0196154,6.66351962 11.6310325,6.84473808 C11.2424495,7.02595655 10.7781328,7.11656442 10.2380684,7.11656442 Z" id="Path"></path>
                    <polygon id="Path" points="14.6748466 7.06748466 14.6748466 0.0490797546 16 0.0490797546 16 7.06748466"></polygon>
                </g>
                <path d="M3.48466258,12.4662577 L3.48466258,11.5974362 L1.2796375,11.5974362 C1.3326545,11.5112721 1.39410602,11.4346818 1.46399206,11.3676652 C1.5338781,11.3006487 1.61460852,11.2348289 1.70618334,11.1702058 C1.79775815,11.1055827 1.90379214,11.0409596 2.02428531,10.9763365 C2.14477849,10.9117135 2.27973084,10.8411068 2.42914238,10.7645164 C2.53517637,10.7070737 2.64482516,10.6400572 2.75808874,10.5634668 C2.87135232,10.4868765 2.97618138,10.3995157 3.07257592,10.3013843 C3.16897046,10.203253 3.24849596,10.0895642 3.31115241,9.96031805 C3.37380886,9.83107188 3.40513708,9.68267813 3.40513708,9.5151368 C3.40513708,9.27100514 3.34368556,9.05798831 3.22078253,8.87608629 C3.09787949,8.69418427 2.92075452,8.55177414 2.68940763,8.4488559 C2.45806074,8.34593765 2.17851658,8.29447853 1.85077514,8.29447853 C1.63388743,8.29447853 1.43025397,8.31721628 1.23987475,8.36269178 C1.04949554,8.40816729 0.875985371,8.46561003 0.719344246,8.53502001 C0.56270312,8.60442999 0.427750766,8.67862687 0.314487183,8.75761064 C0.2012236,8.83659441 0.11085372,8.90959456 0.0433775424,8.97661109 L0.0433775424,8.97661109 L0.657892727,9.68028468 C0.71572945,9.60848125 0.780795764,9.540268 0.853091668,9.47564491 C0.925387572,9.41102183 1.00370813,9.35238236 1.08805336,9.29972651 C1.17239858,9.24707067 1.26397339,9.20638206 1.36277779,9.17766069 C1.46158219,9.14893932 1.56882112,9.13457863 1.68449457,9.13457863 C1.82908637,9.13457863 1.94957955,9.15851311 2.04597409,9.20638206 C2.14236862,9.25425101 2.21707439,9.31767737 2.27009139,9.39666114 C2.32310838,9.47564491 2.34961688,9.56300575 2.34961688,9.65874365 C2.34961688,9.74969466 2.32310838,9.82987515 2.27009139,9.89928513 C2.21707439,9.96869511 2.13875383,10.0369084 2.0351297,10.1039249 C1.93150557,10.1709414 1.80498774,10.2439416 1.6555762,10.3229254 C1.50616467,10.4019091 1.3326545,10.4940569 1.13504569,10.5993686 C0.908518528,10.7238278 0.721754109,10.8518773 0.574752437,10.9835169 C0.427750766,11.1151565 0.312077319,11.2551732 0.227732098,11.4035669 C0.143386876,11.5519607 0.0843452214,11.7123217 0.0506071329,11.8846499 C0.0168690443,12.0569781 0,12.2508474 0,12.4662577 L0,12.4662577 L3.48466258,12.4662577 Z M5.98773006,12.5153374 C6.34435091,12.5153374 6.66362296,12.4217867 6.9455462,12.2346853 C7.22746944,12.0475839 7.44915268,11.7897198 7.6105959,11.461093 C7.77203912,11.1324661 7.85276074,10.757064 7.85276074,10.3348864 C7.85276074,9.91270892 7.77203912,9.53730675 7.6105959,9.20867992 C7.44915268,8.8800531 7.22746944,8.62098961 6.9455462,8.43148947 C6.66362296,8.24198933 6.34435091,8.14723926 5.98773006,8.14723926 C5.63110921,8.14723926 5.31183716,8.24198933 5.02991392,8.43148947 C4.74799068,8.62098961 4.52630745,8.8800531 4.36486422,9.20867992 C4.203421,9.53730675 4.12269939,9.91270892 4.12269939,10.3348864 C4.12269939,10.757064 4.203421,11.1324661 4.36486422,11.461093 C4.52630745,11.7897198 4.74799068,12.0475839 5.02991392,12.2346853 C5.31183716,12.4217867 5.63110921,12.5153374 5.98773006,12.5153374 Z M5.99130672,11.6319018 C5.81485805,11.6319018 5.65986935,11.5766588 5.52634063,11.4661727 C5.3928119,11.3556866 5.2890887,11.2043687 5.21517101,11.012219 C5.14125332,10.8200692 5.10429448,10.5942933 5.10429448,10.3348912 C5.10429448,10.075489 5.14125332,9.84851214 5.21517101,9.65396054 C5.2890887,9.45940894 5.3928119,9.30689009 5.52634063,9.19640399 C5.65986935,9.08591789 5.81485805,9.03067485 5.99130672,9.03067485 C6.16298651,9.03067485 6.31559077,9.08591789 6.4491195,9.19640399 C6.58264822,9.30689009 6.68637143,9.45940894 6.76028911,9.65396054 C6.8342068,9.84851214 6.87116564,10.075489 6.87116564,10.3348912 C6.87116564,10.5894895 6.83301458,10.8140645 6.75671245,11.0086161 C6.68041032,11.2031678 6.57668712,11.3556866 6.44554283,11.4661727 C6.31439855,11.5766588 6.16298651,11.6319018 5.99130672,11.6319018 Z M11.9263804,12.4662577 L11.9263804,11.5974362 L9.72135529,11.5974362 C9.77437229,11.5112721 9.83582381,11.4346818 9.90570985,11.3676652 C9.97559589,11.3006487 10.0563263,11.2348289 10.1479011,11.1702058 C10.2394759,11.1055827 10.3455099,11.0409596 10.4660031,10.9763365 C10.5864963,10.9117135 10.7214486,10.8411068 10.8708602,10.7645164 C10.9768942,10.7070737 11.0865429,10.6400572 11.1998065,10.5634668 C11.3130701,10.4868765 11.4178992,10.3995157 11.5142937,10.3013843 C11.6106883,10.203253 11.6902137,10.0895642 11.7528702,9.96031805 C11.8155266,9.83107188 11.8468549,9.68267813 11.8468549,9.5151368 C11.8468549,9.27100514 11.7854034,9.05798831 11.6625003,8.87608629 C11.5395973,8.69418427 11.3624723,8.55177414 11.1311254,8.4488559 C10.8997785,8.34593765 10.6202344,8.29447853 10.2924929,8.29447853 C10.0756052,8.29447853 9.87197176,8.31721628 9.68159255,8.36269178 C9.49121333,8.40816729 9.31770316,8.46561003 9.16106204,8.53502001 C9.00442091,8.60442999 8.86946856,8.67862687 8.75620497,8.75761064 C8.64294139,8.83659441 8.55257151,8.90959456 8.48509533,8.97661109 L8.48509533,8.97661109 L9.09961052,9.68028468 C9.15744724,9.60848125 9.22251356,9.540268 9.29480946,9.47564491 C9.36710536,9.41102183 9.44542593,9.35238236 9.52977115,9.29972651 C9.61411637,9.24707067 9.70569118,9.20638206 9.80449558,9.17766069 C9.90329999,9.14893932 10.0105389,9.13457863 10.1262124,9.13457863 C10.2708042,9.13457863 10.3912973,9.15851311 10.4876919,9.20638206 C10.5840864,9.25425101 10.6587922,9.31767737 10.7118092,9.39666114 C10.7648262,9.47564491 10.7913347,9.56300575 10.7913347,9.65874365 C10.7913347,9.74969466 10.7648262,9.82987515 10.7118092,9.89928513 C10.6587922,9.96869511 10.5804716,10.0369084 10.4768475,10.1039249 C10.3732234,10.1709414 10.2467055,10.2439416 10.097294,10.3229254 C9.94788246,10.4019091 9.77437229,10.4940569 9.57676349,10.5993686 C9.35023632,10.7238278 9.1634719,10.8518773 9.01647023,10.9835169 C8.86946856,11.1151565 8.75379511,11.2551732 8.66944989,11.4035669 C8.58510467,11.5519607 8.52606301,11.7123217 8.49232492,11.8846499 C8.45858684,12.0569781 8.44171779,12.2508474 8.44171779,12.4662577 L8.44171779,12.4662577 L11.9263804,12.4662577 Z M16,12.4662577 L16,11.5974362 L13.7949749,11.5974362 C13.8479919,11.5112721 13.9094434,11.4346818 13.9793295,11.3676652 C14.0492155,11.3006487 14.1299459,11.2348289 14.2215208,11.1702058 C14.3130956,11.1055827 14.4191296,11.0409596 14.5396227,10.9763365 C14.6601159,10.9117135 14.7950683,10.8411068 14.9444798,10.7645164 C15.0505138,10.7070737 15.1601626,10.6400572 15.2734262,10.5634668 C15.3866897,10.4868765 15.4915188,10.3995157 15.5879133,10.3013843 C15.6843079,10.203253 15.7638334,10.0895642 15.8264898,9.96031805 C15.8891463,9.83107188 15.9204745,9.68267813 15.9204745,9.5151368 C15.9204745,9.27100514 15.859023,9.05798831 15.73612,8.87608629 C15.6132169,8.69418427 15.4360919,8.55177414 15.2047451,8.4488559 C14.9733982,8.34593765 14.693854,8.29447853 14.3661126,8.29447853 C14.1492249,8.29447853 13.9455914,8.31721628 13.7552122,8.36269178 C13.564833,8.40816729 13.3913228,8.46561003 13.2346817,8.53502001 C13.0780405,8.60442999 12.9430882,8.67862687 12.8298246,8.75761064 C12.716561,8.83659441 12.6261911,8.90959456 12.558715,8.97661109 L12.558715,8.97661109 L13.1732302,9.68028468 C13.2310669,9.60848125 13.2961332,9.540268 13.3684291,9.47564491 C13.440725,9.41102183 13.5190456,9.35238236 13.6033908,9.29972651 C13.687736,9.24707067 13.7793108,9.20638206 13.8781152,9.17766069 C13.9769196,9.14893932 14.0841585,9.13457863 14.199832,9.13457863 C14.3444238,9.13457863 14.464917,9.15851311 14.5613115,9.20638206 C14.657706,9.25425101 14.7324118,9.31767737 14.7854288,9.39666114 C14.8384458,9.47564491 14.8649543,9.56300575 14.8649543,9.65874365 C14.8649543,9.74969466 14.8384458,9.82987515 14.7854288,9.89928513 C14.7324118,9.96869511 14.6540913,10.0369084 14.5504671,10.1039249 C14.446843,10.1709414 14.3203252,10.2439416 14.1709136,10.3229254 C14.0215021,10.4019091 13.8479919,10.4940569 13.6503831,10.5993686 C13.423856,10.7238278 13.2370915,10.8518773 13.0900899,10.9835169 C12.9430882,11.1151565 12.8274147,11.2551732 12.7430695,11.4035669 C12.6587243,11.5519607 12.5996826,11.7123217 12.5659446,11.8846499 C12.5322065,12.0569781 12.5153374,12.2508474 12.5153374,12.4662577 L12.5153374,12.4662577 L16,12.4662577 Z" id="2022"></path>
            </g>
        </g>
    </g>
</svg>